<svg width="1342" height="1344" viewBox="0 0 1342 1344" fill="none" xmlns="http://www.w3.org/2000/svg">
<path d="M670.743 0.00195312C706.959 0.505107 770.025 3.17056 807.066 8.14746C851.443 -2.1274 903.487 -2.95856 947.915 10.2227L950.049 10.8682L950.16 10.9033L950.27 10.9395C979.564 20.9044 1012.54 39.4976 1034.82 62.3945C1035.58 62.6588 1036.34 62.9433 1037.01 63.2012C1038.9 63.9255 1041.25 64.8891 1043.88 65.9932C1049.14 68.2059 1055.72 71.0799 1062.26 73.9707C1074.79 79.504 1086.78 84.8976 1090.31 86.3418L1090.9 86.5762L1091.24 86.708L1091.58 86.8711C1216.2 147.805 1294.14 233.116 1325.79 334.73C1357.11 435.269 1342.69 550.424 1285.59 671.548C1342.67 792.741 1357.11 907.862 1325.81 1008.37C1294.17 1109.95 1216.24 1195.22 1091.57 1256.22L1091.57 1256.22C1089.46 1257.25 1075.45 1263.4 1061.96 1269.22C1055.14 1272.16 1048.33 1275.07 1043.07 1277.27C1040.44 1278.37 1038.16 1279.31 1036.44 1279.99C1035.89 1280.21 1035.38 1280.4 1034.92 1280.58C1012.6 1303.48 979.703 1322.21 950.243 1332.16L950.14 1332.19L950.035 1332.23C905.153 1346.05 852.147 1345.42 807.046 1334.94C770.161 1339.84 707.191 1342.66 671.095 1343.09L662.875 1343.19V1342.93C625.92 1342.15 569.395 1339.55 534.944 1334.93C489.822 1345.38 436.869 1346.06 391.96 1332.21L391.855 1332.18L391.748 1332.14C362.296 1322.17 329.507 1303.56 307.169 1280.66C306.686 1280.49 306.16 1280.29 305.612 1280.08C303.865 1279.4 301.565 1278.46 298.937 1277.35C293.664 1275.14 286.853 1272.19 280.037 1269.21C266.23 1263.18 252.698 1257.16 250.932 1256.43L250.679 1256.33L250.433 1256.21C125.711 1195.22 47.7892 1109.88 16.1719 1008.26C-15.1103 907.726 -0.645218 792.601 56.4053 671.532C-0.643322 550.378 -15.1088 435.275 16.1739 334.771C47.7918 233.191 125.713 147.902 250.431 86.8721L251.064 86.5615L251.741 86.3662C251.642 86.3949 251.805 86.3471 252.421 86.1055C252.957 85.8948 253.667 85.6053 254.546 85.2354C256.299 84.497 258.591 83.4996 261.266 82.3213C266.617 79.9634 273.332 76.9522 280.064 73.9521C286.766 70.9661 293.48 67.9938 298.728 65.7607C301.342 64.6481 303.665 63.6881 305.471 62.9941C306.088 62.7569 306.689 62.5333 307.247 62.3389C329.546 39.5113 362.373 20.8597 391.755 10.9346L391.859 10.8984L391.964 10.8672C436.876 -2.95881 489.827 -2.3249 534.946 8.14844C571.609 3.26452 634.646 0.441279 670.531 0.00195312L670.637 0L670.743 0.00195312ZM670.998 1285.96C663.296 1289.67 653.001 1294.41 642.524 1299.03C660.779 1299.34 681.111 1299.38 699.576 1299.07C689.054 1294.44 678.707 1289.67 670.998 1285.96ZM1126.68 913.536C1011.96 1049.31 873.295 1171.67 718.861 1260.37C742.934 1270.94 773.057 1281.57 795.791 1288.02L808.984 1290.96C835.584 1288 888.525 1278.14 914.326 1272.35C938.824 1266.13 987.328 1252.26 1011.15 1243.04L1016.63 1237.55C1088.04 1151.38 1112.06 1026.72 1126.68 913.536ZM215.342 913.533C229.948 1026.68 253.974 1151.38 325.376 1237.55L330.843 1243.02C375.399 1260.02 439.153 1275.81 486.118 1284.26L533.185 1290.93C561.343 1284.83 594.804 1272.78 623.07 1260.32C468.671 1171.62 330.04 1049.28 215.342 913.533ZM671.01 105.975C490.863 202.967 332.943 347.545 207.157 508.626C198.803 615.177 198.803 727.927 207.157 834.478C327.538 989.547 479.062 1127.75 649.245 1225.69L670.975 1237.14C851.137 1140.14 1009.07 995.556 1134.86 834.464C1143.22 727.918 1143.22 615.173 1134.86 508.627C1009.07 347.545 851.157 202.967 671.01 105.975ZM81.7295 721.791C38.6596 826.785 31.9967 922.466 60.6201 1004.71C89.1392 1086.66 153.117 1156.5 253.776 1209.34C193.731 1101.23 176.44 969.48 164.973 850.339C137.357 813.213 105.133 764.502 81.7295 721.791ZM1260.28 721.753C1236.87 764.472 1204.64 813.21 1177.03 850.325C1165.58 969.355 1148.3 1100.96 1088.4 1209.03C1186.99 1157.81 1250.65 1089.29 1279.91 1008.65C1310.07 925.536 1304.13 828.297 1260.28 721.753ZM1182.35 575.964C1185.1 638.541 1185.1 704.539 1182.35 767.122C1202.13 736.71 1223.33 700.832 1237.4 671.544C1223.35 642.273 1202.13 606.368 1182.35 575.964ZM159.643 575.958C139.857 606.378 118.653 642.268 104.585 671.56C118.246 700.347 140.322 737.102 159.641 767.083C156.899 704.516 156.899 638.53 159.643 575.958ZM1088.39 134.042C1148.3 242.106 1165.57 373.707 1177.02 492.743C1204.65 529.875 1236.88 578.598 1260.28 621.314C1304.17 514.671 1310.06 417.408 1279.87 334.303C1250.58 253.681 1186.9 185.211 1088.39 134.042ZM253.597 134.054C163.615 180.837 101.45 242.714 69.1885 316.57C34.1321 396.827 33.8781 492.393 73.3614 600.267L81.8701 621.032C105.264 578.381 137.421 529.777 164.973 492.743C176.419 373.72 193.696 242.124 253.597 134.054ZM533.091 52.1279C468.319 59.9819 391.975 77.1866 330.977 100.026C292.007 142.282 266.532 198.158 248.889 258.128C232.141 315.053 222.598 375.116 215.086 429.833C329.83 293.966 468.547 171.527 623.053 82.7646C594.749 70.2941 561.272 58.2242 533.091 52.1279ZM808.897 52.1279C780.732 58.2243 747.226 70.2862 718.932 82.7588C873.346 171.466 1011.99 293.82 1126.7 429.581C1119.98 377.416 1110.8 320.366 1095.4 265.993C1077.42 202.515 1051.14 143.375 1011.03 100.029C950.036 77.2072 873.657 59.9612 808.897 52.1279ZM699.547 44.0078C681.102 43.6751 660.896 43.6769 642.45 44.0107C652.962 48.6437 663.296 53.3995 670.998 57.1055C678.718 53.3898 689.044 48.6365 699.547 44.0078Z" fill="white"/>
</svg>
